<svg width="63" height="69" viewBox="0 0 63 69" fill="none" xmlns="http://www.w3.org/2000/svg">
<g clip-path="url(#clip0_3_30)">
<path fill-rule="evenodd" clip-rule="evenodd" d="M59.0625 8.625C59.0625 7.48125 58.6477 6.38435 57.9092 5.5756C57.1708 4.76685 56.1693 4.3125 55.125 4.3125H7.875C6.83071 4.3125 5.82919 4.76685 5.09077 5.5756C4.35234 6.38435 3.9375 7.48125 3.9375 8.625V60.375C3.9375 61.5187 4.35234 62.6156 5.09077 63.4244C5.82919 64.2331 6.83071 64.6875 7.875 64.6875H55.125C56.1693 64.6875 57.1708 64.2331 57.9092 63.4244C58.6477 62.6156 59.0625 61.5187 59.0625 60.375V8.625ZM0 8.625C0 6.33751 0.829685 4.14371 2.30653 2.5262C3.78338 0.908703 5.78642 0 7.875 0L55.125 0C57.2136 0 59.2166 0.908703 60.6935 2.5262C62.1703 4.14371 63 6.33751 63 8.625V60.375C63 62.6625 62.1703 64.8563 60.6935 66.4738C59.2166 68.0913 57.2136 69 55.125 69H7.875C5.78642 69 3.78338 68.0913 2.30653 66.4738C0.829685 64.8563 0 62.6625 0 60.375V8.625ZM45.2812 32.3438C45.8034 32.3438 46.3042 32.5709 46.6734 32.9753C47.0426 33.3797 47.25 33.9281 47.25 34.5C47.25 35.0719 47.0426 35.6203 46.6734 36.0247C46.3042 36.4291 45.8034 36.6562 45.2812 36.6562H22.4713L30.9251 45.9109C31.1082 46.1114 31.2534 46.3494 31.3524 46.6113C31.4515 46.8732 31.5025 47.154 31.5025 47.4375C31.5025 47.721 31.4515 48.0018 31.3524 48.2637C31.2534 48.5256 31.1082 48.7636 30.9251 48.9641C30.7421 49.1646 30.5248 49.3236 30.2856 49.4321C30.0464 49.5406 29.7901 49.5965 29.5312 49.5965C29.2724 49.5965 29.0161 49.5406 28.7769 49.4321C28.5377 49.3236 28.3204 49.1646 28.1374 48.9641L16.3249 36.0266C16.1415 35.8263 15.9961 35.5884 15.8968 35.3264C15.7976 35.0645 15.7465 34.7836 15.7465 34.5C15.7465 34.2164 15.7976 33.9355 15.8968 33.6736C15.9961 33.4116 16.1415 33.1737 16.3249 32.9734L28.1374 20.0359C28.5071 19.631 29.0084 19.4035 29.5312 19.4035C30.0541 19.4035 30.5554 19.631 30.9251 20.0359C31.2948 20.4408 31.5025 20.9899 31.5025 21.5625C31.5025 22.1351 31.2948 22.6842 30.9251 23.0891L22.4713 32.3438H45.2812Z" fill="#7B7B7B"/>
</g>
<defs>
<clipPath id="clip0_3_30">
<rect width="63" height="69" fill="white"/>
</clipPath>
</defs>
</svg>
