<svg width="44" height="46" viewBox="0 0 44 46" fill="none" xmlns="http://www.w3.org/2000/svg">
<g clip-path="url(#clip0_3_53)">
<path d="M5.5 0C4.04131 0 2.64236 0.605802 1.61091 1.68414C0.579463 2.76247 0 4.22501 0 5.75L0 40.25C0 41.775 0.579463 43.2375 1.61091 44.3159C2.64236 45.3942 4.04131 46 5.5 46H38.5C39.9587 46 41.3576 45.3942 42.3891 44.3159C43.4205 43.2375 44 41.775 44 40.25V5.75C44 4.22501 43.4205 2.76247 42.3891 1.68414C41.3576 0.605802 39.9587 0 38.5 0L5.5 0ZM33.0825 14.2887C33.4645 14.6877 33.6816 15.2273 33.6873 15.7917C33.6929 16.3561 33.4866 16.9003 33.1128 17.3075L22.1348 31.6538C21.9461 31.8662 21.7184 32.0367 21.4652 32.1551C21.2121 32.2734 20.9387 32.3372 20.6614 32.3425C20.3842 32.3479 20.1087 32.2948 19.8516 32.1863C19.5944 32.0778 19.3608 31.9163 19.1647 31.7112L11.891 24.104C11.6884 23.9066 11.5258 23.6685 11.4131 23.404C11.3004 23.1395 11.2398 22.854 11.2349 22.5645C11.23 22.275 11.2809 21.9874 11.3847 21.7189C11.4884 21.4504 11.6428 21.2065 11.8386 21.0018C12.0345 20.797 12.2678 20.6356 12.5246 20.5271C12.7814 20.4187 13.0565 20.3654 13.3334 20.3705C13.6104 20.3757 13.8835 20.439 14.1365 20.5569C14.3895 20.6747 14.6172 20.8447 14.806 21.0565L20.5645 27.0739L30.1152 14.352C30.3036 14.1392 30.531 13.9682 30.7839 13.8494C31.0369 13.7305 31.3101 13.6662 31.5874 13.6603C31.8646 13.6544 32.1402 13.707 32.3976 13.815C32.6549 13.923 32.8888 14.0841 33.0853 14.2887H33.0825Z" fill="#52687B"/>
</g>
<defs>
<clipPath id="clip0_3_53">
<rect width="44" height="46" fill="white"/>
</clipPath>
</defs>
</svg>
