<svg width="40" height="33" viewBox="0 0 40 33" fill="none" xmlns="http://www.w3.org/2000/svg">
<path fill-rule="evenodd" clip-rule="evenodd" d="M0 31.1667C0 30.6804 0.191558 30.2141 0.532533 29.8703C0.873509 29.5265 1.33597 29.3333 1.81818 29.3333H38.1818C38.664 29.3333 39.1265 29.5265 39.4675 29.8703C39.8084 30.2141 40 30.6804 40 31.1667C40 31.6529 39.8084 32.1192 39.4675 32.463C39.1265 32.8068 38.664 33 38.1818 33H1.81818C1.33597 33 0.873509 32.8068 0.532533 32.463C0.191558 32.1192 0 31.6529 0 31.1667ZM0 16.5C0 16.0138 0.191558 15.5475 0.532533 15.2036C0.873509 14.8598 1.33597 14.6667 1.81818 14.6667H38.1818C38.664 14.6667 39.1265 14.8598 39.4675 15.2036C39.8084 15.5475 40 16.0138 40 16.5C40 16.9862 39.8084 17.4525 39.4675 17.7964C39.1265 18.1402 38.664 18.3333 38.1818 18.3333H1.81818C1.33597 18.3333 0.873509 18.1402 0.532533 17.7964C0.191558 17.4525 0 16.9862 0 16.5ZM0 1.83333C0 1.3471 0.191558 0.880788 0.532533 0.536971C0.873509 0.193155 1.33597 0 1.81818 0H38.1818C38.664 0 39.1265 0.193155 39.4675 0.536971C39.8084 0.880788 40 1.3471 40 1.83333C40 2.31956 39.8084 2.78588 39.4675 3.1297C39.1265 3.47351 38.664 3.66667 38.1818 3.66667H1.81818C1.33597 3.66667 0.873509 3.47351 0.532533 3.1297C0.191558 2.78588 0 2.31956 0 1.83333Z" fill="#7B7B7B"/>
</svg>
