<svg width="63" height="69" viewBox="0 0 63 69" fill="none" xmlns="http://www.w3.org/2000/svg">
<path fill-rule="evenodd" clip-rule="evenodd" d="M0 62.6927C0 64.3655 0.619378 65.9698 1.72188 67.1526C2.82438 68.3355 4.31968 69 5.87885 69H48.9904C50.5496 69 52.0449 68.3355 53.1474 67.1526C54.2499 65.9698 54.8693 64.3655 54.8693 62.6927V37.4634C54.8693 36.9058 54.6628 36.371 54.2953 35.9767C53.9278 35.5824 53.4294 35.3609 52.9097 35.3609C52.39 35.3609 51.8915 35.5824 51.524 35.9767C51.1565 36.371 50.9501 36.9058 50.9501 37.4634V62.6927C50.9501 63.2503 50.7436 63.785 50.3761 64.1793C50.0086 64.5736 49.5102 64.7951 48.9904 64.7951H5.87885C5.35913 64.7951 4.86069 64.5736 4.49319 64.1793C4.12569 63.785 3.91924 63.2503 3.91924 62.6927V16.4389C3.91924 15.8813 4.12569 15.3466 4.49319 14.9523C4.86069 14.558 5.35913 14.3365 5.87885 14.3365H31.3539C31.8736 14.3365 32.372 14.115 32.7395 13.7207C33.107 13.3264 33.3135 12.7916 33.3135 12.234C33.3135 11.6764 33.107 11.1417 32.7395 10.7474C32.372 10.3531 31.8736 10.1316 31.3539 10.1316H5.87885C4.31968 10.1316 2.82438 10.7961 1.72188 11.979C0.619378 13.1618 0 14.7661 0 16.4389V62.6927Z" fill="#7B7B7B"/>
<path d="M62.4282 6.05669C62.7943 6.45079 63 6.98455 63 7.54102C63 8.09748 62.7943 8.63125 62.4282 9.02534L58.3404 13.4152L50.5019 5.00547L54.5897 0.615567C54.9572 0.22142 55.4555 0 55.9751 0C56.4948 0 56.9931 0.22142 57.3606 0.615567L62.4282 6.05249V6.05669ZM55.5695 16.3839L47.731 7.97412L21.0293 36.6262C20.8136 36.8576 20.6512 37.1398 20.555 37.4504L17.4001 47.601C17.3428 47.786 17.3347 47.9845 17.3766 48.1742C17.4185 48.3639 17.5087 48.5374 17.6372 48.6753C17.7657 48.8132 17.9274 48.91 18.1042 48.9549C18.2811 48.9998 18.4661 48.9911 18.6385 48.9297L28.0996 45.5448C28.3887 45.4429 28.6517 45.2701 28.8677 45.0402L55.5695 16.3839Z" fill="#7B7B7B"/>
</svg>
